<svg width="80" height="80" viewBox="0 0 80 80" fill="none" xmlns="http://www.w3.org/2000/svg">
<path opacity="0.3" d="M80 40C80 62.0914 62.0914 80 40 80C17.9086 80 0 62.0914 0 40C0 17.9086 17.9086 0 40 0C62.0914 0 80 17.9086 80 40ZM10.9071 40C10.9071 56.0675 23.9325 69.0929 40 69.0929C56.0675 69.0929 69.0929 56.0675 69.0929 40C69.0929 23.9325 56.0675 10.9071 40 10.9071C23.9325 10.9071 10.9071 23.9325 10.9071 40Z" fill="#2F2E30"/>
<circle cx="40" cy="40" r="29" fill="black"/>
<path d="M28.0991 50.5992L28.0989 50.5991C27.2262 49.9483 26.4256 48.9206 25.8428 47.759C25.2599 46.5973 24.9167 45.3451 24.9167 44.2666V31.8666C24.9167 29.5074 26.6715 26.9618 28.8912 26.1351L28.8921 26.1348L37.2084 23.0183C37.2085 23.0182 37.2086 23.0182 37.2086 23.0182C37.9621 22.7366 38.9616 22.5874 39.9834 22.5874C41.0051 22.5874 42.0046 22.7366 42.7581 23.0182C42.7581 23.0182 42.7582 23.0182 42.7583 23.0183L51.0746 26.1348L51.0755 26.1351C53.2952 26.9618 55.05 29.5074 55.05 31.8666V44.2499C55.05 45.3371 54.7066 46.5892 54.1241 47.7483C53.5416 48.9073 52.7411 49.9313 51.8678 50.5824L51.8676 50.5826L44.7009 55.9326L44.7009 55.9325L44.6947 55.9373C43.412 56.9264 41.724 57.4332 40 57.4332C38.2774 57.4332 36.5852 56.927 35.2649 55.9486C35.2647 55.9484 35.2646 55.9483 35.2644 55.9482L28.0991 50.5992ZM37.7419 24.4315L37.7412 24.4317L29.4246 27.5484L29.4239 27.5486C28.5963 27.8602 27.855 28.5225 27.3241 29.2906C26.793 30.059 26.4334 30.9898 26.4334 31.8832V44.2666C26.4334 45.161 26.7439 46.1892 27.2009 47.101C27.6578 48.0126 28.2933 48.8722 29.0009 49.4005L29.0009 49.4006L36.1672 54.7503C37.2292 55.5445 38.6283 55.9249 40.0021 55.9249C41.3761 55.9249 42.7783 55.5445 43.8478 54.7516L43.8491 54.7506L51.0158 49.4006L51.0167 49.3999C51.7314 48.8638 52.3669 48.005 52.8222 47.0943C53.2776 46.1837 53.5834 45.16 53.5834 44.2666V31.8666C53.5834 30.9804 53.2229 30.0538 52.6926 29.2864C52.1621 28.5189 51.4223 27.854 50.5976 27.5338L50.5977 27.5338L50.5921 27.5317L42.2755 24.415L42.2755 24.4149L42.2664 24.4117C41.6283 24.1865 40.8002 24.0831 40.0007 24.0853C39.2021 24.0875 38.3752 24.1951 37.7419 24.4315Z" fill="#FAFAFA" stroke="#FAFAFA"/>
<path d="M37.4131 41.0536L37.7667 41.4071L38.1202 41.0536L44.4036 34.7703C44.6916 34.4822 45.1751 34.4822 45.4631 34.7703C45.7512 35.0583 45.7512 35.5417 45.4631 35.8298L38.2965 42.9965C38.1452 43.1478 37.9579 43.2167 37.7667 43.2167C37.5755 43.2167 37.3882 43.1478 37.2369 42.9965L34.5536 40.3131C34.2655 40.0251 34.2655 39.5417 34.5536 39.2536C34.8416 38.9655 35.3251 38.9655 35.6131 39.2536L37.4131 41.0536Z" fill="#FAFAFA" stroke="#FAFAFA"/>
</svg>
